<svg
  viewBox="0 0 301 301"
  xmlns="http://www.w3.org/2000/svg">
  <style>
    @media (prefers-color-scheme: light) { 
      #favicon-circle { fill: #1d1d1f }
      #favicon-whale { fill: #ccc }
    }
    @media (prefers-color-scheme: dark) { 
      #favicon-circle { fill: #1d1d1f }
      #favicon-whale { fill: #ccc }
    }
  </style>
  <circle
    id="favicon-circle"
    cx="154.702"
    cy="167.243"
    r="153.155"
    fill="#f6237a"
    transform="matrix(.86784 0 0 .87245 15.786 -2.1)"/>
  <path
    id="favicon-whale"
    d="M223.476 136.336c-25.795 1.657-71.873 45.442-121.264 34.44-68.203-15.195-65.986-48.458-62.71-67.87 3.71-21.98 16.023-28.189 16.023-28.189 33.055-1.221 60.286-11.281 67.71-18.584 6.123-6.023-15.067-7.144-20.463-8.704-7.481-2.163-14.731-10.335-41.53-2.955.768-9.98-8.626-17.337-16.295-21.468-13.681-7.37-26.99-28.83-29.96-21.435-2.97 7.395 16.04 61.699 16.04 61.699-62.462 73.43-18.054 156.003 24.465 185.439 11.718 8.113 15.58 12.347 31.098 17.311 11.224 3.592-28.405 23.766-22.734 32.144 6.414 9.477 82.93-19.97 97.04-19.712 17.892.327 37.99-.545 50.894-3.636 37.582-9.002 84.787-30.046 88.039-61.13 3.393-32.43-34.196-80.056-76.353-77.35Zm-42.981 112.356c1.346-.216 3.27-1.34 4.313-1.235 1.475.148 1.09 1.2.787 1.81-.571 1.153-2.056 1.845-5.305 2.368-3.25.521-4.464-.056-4.679-1.183-.105-.547-.262-.793.674-1.322.999-.563 2.534-.168 4.21-.438Z"
    fill="#002639"
    fill-rule="nonzero"/>
</svg>
