<svg 
  xmlns="http://www.w3.org/2000/svg"
  viewBox="0 0 301 301">
  <style>
    @media (prefers-color-scheme: light) { 
      #favicon-circle { fill: #fff }
      #favicon-whale { fill: #1d1d1f }
    }
    @media (prefers-color-scheme: dark) { 
      #favicon-circle { fill: #fff }
      #favicon-whale { fill: #1d1d1f }
    }
  </style>
  <circle 
    id="favicon-circle"
    cx="154.702" 
    cy="167.243" 
    r="153.155"
    transform="matrix(.97613 0 0 .97613 -.51 -12.752)"/>
  <path
    id="favicon-whale"
    fill-rule="nonzero" 
    d="M207.286 126.951c-20.427 1.312-56.916 35.986-96.029 27.273-54.01-12.033-52.255-38.374-49.66-53.746 2.938-17.406 12.688-22.323 12.688-22.323 26.177-.967 47.741-8.934 53.62-14.717 4.849-4.77-11.931-5.657-16.205-6.893-5.924-1.712-11.665-8.184-32.887-2.34.608-7.903-6.831-13.729-12.904-17-10.834-5.837-21.374-22.83-23.726-16.975-2.352 5.857 12.702 48.86 12.702 48.86C5.422 127.24 40.588 192.63 74.26 215.94c9.28 6.424 12.338 9.777 24.627 13.708 8.888 2.845-22.494 18.82-18.003 25.455 5.079 7.505 65.672-15.814 76.846-15.61 14.169.26 30.084-.431 40.303-2.88 29.761-7.128 67.143-23.793 69.718-48.408 2.687-25.682-27.08-63.397-60.464-61.254Zm-34.036 88.975c1.065-.17 2.59-1.06 3.415-.978 1.168.117.863.95.623 1.434-.452.913-1.628 1.46-4.2 1.875-2.574.412-3.536-.045-3.706-.937-.083-.433-.208-.628.534-1.047.79-.446 2.006-.133 3.334-.347Z"/>
</svg>