<?xml version="1.0" standalone="no"?>
<!DOCTYPE svg PUBLIC "-//W3C//DTD SVG 20010904//EN"
 "http://www.w3.org/TR/2001/REC-SVG-20010904/DTD/svg10.dtd">
<svg version="1.0" xmlns="http://www.w3.org/2000/svg"
 width="700.000000pt" height="700.000000pt" viewBox="0 0 700.000000 700.000000"
 preserveAspectRatio="xMidYMid meet">
<metadata>
Created by potrace 1.14, written by Peter Selinger 2001-2017
</metadata>
<g transform="translate(0.000000,700.000000) scale(0.100000,-0.100000)"
fill="#000000" stroke="none">
<path d="M360 6975 c-19 -23 -7 -179 25 -320 39 -174 140 -519 244 -836 50
-152 91 -281 91 -287 0 -6 -32 -51 -71 -99 -355 -442 -576 -963 -630 -1480
-15 -147 -6 -535 15 -666 108 -665 425 -1285 901 -1762 146 -147 212 -201 475
-389 218 -155 350 -229 525 -291 116 -42 125 -48 125 -85 0 -44 -59 -109 -242
-267 -279 -239 -342 -313 -336 -390 4 -54 45 -73 157 -73 201 0 448 57 1276
295 237 68 495 141 575 161 l145 36 370 8 c602 13 795 39 1225 166 839 249
1459 648 1660 1070 128 268 104 594 -70 961 -102 214 -245 415 -417 585 -167
166 -325 280 -508 368 -220 106 -383 144 -610 144 -250 0 -325 -27 -930 -327
-550 -274 -774 -367 -1055 -437 -228 -57 -287 -64 -540 -64 -218 0 -244 2
-361 27 -290 62 -550 148 -774 257 -197 95 -309 173 -440 304 -163 165 -240
307 -281 523 -13 70 -15 121 -10 248 11 306 81 547 212 731 50 71 135 151 179
169 17 7 82 15 145 18 327 17 755 104 1047 213 210 78 413 203 413 254 0 49
-96 84 -350 129 -130 23 -184 37 -256 69 -161 71 -214 84 -371 89 -153 6 -241
-3 -397 -41 l-96 -23 0 44 c0 55 -29 139 -69 196 -66 96 -127 146 -367 297
-61 39 -142 108 -273 234 -102 99 -208 196 -234 218 -52 41 -95 49 -117 23z
m3958 -5751 c5 -33 -39 -61 -118 -75 -61 -11 -72 -10 -94 5 -15 9 -26 23 -26
30 0 17 50 36 99 37 20 0 52 7 71 14 46 18 64 15 68 -11z"/>
</g>
</svg>
